<svg xmlns="http://www.w3.org/2000/svg" width="192" height="192" viewBox="0 0 192 192">
  <circle cx="96" cy="96" r="96" fill="#d4f3e8"/>
  <!-- Antennen -->
  <line x1="76" y1="52" x2="60" y2="28" stroke="#1D9E75" stroke-width="5" stroke-linecap="round"/>
  <circle cx="56" cy="24" r="10" fill="#E24B4A"/>
  <line x1="116" y1="50" x2="134" y2="28" stroke="#1D9E75" stroke-width="5" stroke-linecap="round"/>
  <circle cx="138" cy="24" r="9" fill="#EF9F27"/>
  <line x1="96" y1="44" x2="96" y2="20" stroke="#1D9E75" stroke-width="5" stroke-linecap="round"/>
  <circle cx="96" cy="16" r="11" fill="#378ADD"/>
  <!-- Körper -->
  <ellipse cx="96" cy="138" rx="52" ry="46" fill="#5DCAA5"/>
  <ellipse cx="96" cy="136" rx="46" ry="40" fill="#9FE1CB"/>
  <!-- Kopf -->
  <ellipse cx="96" cy="84" rx="46" ry="44" fill="#5DCAA5"/>
  <ellipse cx="96" cy="82" rx="41" ry="39" fill="#9FE1CB"/>
  <!-- Augen -->
  <ellipse cx="80" cy="76" rx="13" ry="15" fill="white"/>
  <ellipse cx="112" cy="76" rx="13" ry="15" fill="white"/>
  <ellipse cx="82" cy="78" rx="8" ry="9" fill="#085041"/>
  <ellipse cx="114" cy="78" rx="8" ry="9" fill="#085041"/>
  <circle cx="85" cy="73" r="3" fill="white"/>
  <circle cx="117" cy="73" r="3" fill="white"/>
  <!-- Mund -->
  <path d="M 78 100 Q 96 114 114 100" fill="none" stroke="#085041" stroke-width="4" stroke-linecap="round"/>
  <!-- Wangen -->
  <ellipse cx="62" cy="92" rx="10" ry="7" fill="#E24B4A" opacity="0.3"/>
  <ellipse cx="130" cy="92" rx="10" ry="7" fill="#E24B4A" opacity="0.3"/>
</svg>
